<svg width="16" height="16" viewBox="0 0 16 16" fill="none" xmlns="http://www.w3.org/2000/svg">
<path d="M7.99976 1.50024C9.15347 1.50024 10.2817 1.84268 11.241 2.48364L11.4187 2.60669C12.2926 3.23874 12.9755 4.10181 13.3894 5.10083L13.4685 5.302C13.8442 6.31331 13.9324 7.41104 13.7214 8.47192C13.5104 9.5326 13.0091 10.5125 12.2751 11.303L12.1248 11.4583L9.29663 14.2874L9.29565 14.2864C9.16812 14.414 9.02349 14.5228 8.86499 14.6077L8.7019 14.6848C8.47966 14.7769 8.2413 14.8244 8.00073 14.8245C7.82021 14.8245 7.64063 14.7976 7.46851 14.7454L7.29858 14.6848C7.07627 14.5926 6.87493 14.4566 6.70483 14.2864V14.2874L3.87476 11.4583C3.11016 10.6935 2.57442 9.73218 2.32495 8.68286L2.27905 8.47192C2.054 7.34038 2.16956 6.16671 2.61108 5.10083L2.69702 4.90356C3.14647 3.92271 3.86008 3.08462 4.75952 2.48364L4.94116 2.36646C5.85959 1.80084 6.91832 1.5003 7.99976 1.50024Z" stroke="#BFBFBF" stroke-linecap="round" stroke-linejoin="round"/>
<path d="M8 4.83337C8.66304 4.83337 9.29874 5.09695 9.76758 5.5658L9.93359 5.74939C10.298 6.19423 10.5 6.75327 10.5 7.33337C10.5 7.91348 10.298 8.47251 9.93359 8.91736L9.76758 9.10095C9.29874 9.56979 8.66304 9.83337 8 9.83337C7.41989 9.83337 6.86086 9.6314 6.41602 9.26697L6.23242 9.10095C5.76358 8.63211 5.5 7.99641 5.5 7.33337C5.5 6.67033 5.76358 6.03464 6.23242 5.5658L6.41602 5.39978C6.86086 5.03534 7.41989 4.83337 8 4.83337Z" stroke="#BFBFBF" stroke-linecap="round" stroke-linejoin="round"/>
</svg>
