<svg width="24" height="24" viewBox="0 0 24 24" fill="none" xmlns="http://www.w3.org/2000/svg">
<path fill-rule="evenodd" clip-rule="evenodd" d="M5.452 3H18.5475C19.902 3 21 4.098 21 5.452V18.5475C21 19.902 19.902 21 18.548 21H5.452C4.098 21 3 19.902 3 18.548V5.452C3 4.098 4.098 3 5.452 3Z" fill="#212121"/>
<path fill-rule="evenodd" clip-rule="evenodd" d="M14.6039 10.3035C15.3919 10.8665 16.3574 11.1975 17.3999 11.1975V9.19199C17.2024 9.19199 17.0059 9.17149 16.8129 9.13049V10.709C15.7704 10.709 14.8054 10.3775 14.0169 9.81499V13.907C14.0169 15.954 12.3564 17.6135 10.3084 17.6135C9.5444 17.6135 8.8339 17.3825 8.2439 16.9865C8.9174 17.6745 9.8564 18.1015 10.8954 18.1015C12.9434 18.1015 14.6039 16.442 14.6039 14.395V10.3035ZM15.3284 8.28049C14.9259 7.84099 14.6614 7.27249 14.6039 6.64399V6.38599H14.0474C14.1874 7.18449 14.6654 7.86699 15.3284 8.28049ZM9.5394 15.416C9.3144 15.121 9.1929 14.7605 9.1934 14.3895C9.1934 13.453 9.9529 12.694 10.8899 12.694C11.0644 12.694 11.2379 12.7205 11.4044 12.7735V10.7235C11.2099 10.697 11.0139 10.6855 10.8174 10.6895V12.285C10.6509 12.232 10.4774 12.2055 10.3024 12.2055C9.3654 12.2055 8.6059 12.9645 8.6059 13.901C8.6064 14.5635 8.9859 15.137 9.5394 15.416Z" fill="#EC407A"/>
<path fill-rule="evenodd" clip-rule="evenodd" d="M14.017 9.81499C14.805 10.378 15.7705 10.709 16.813 10.709V9.13049C16.231 9.00649 15.716 8.70249 15.3285 8.27999C14.6655 7.86649 14.188 7.18449 14.048 6.38599H12.5865V14.395C12.583 15.3285 11.825 16.0845 10.89 16.0845C10.339 16.0845 9.84949 15.822 9.53949 15.4155C8.98599 15.1365 8.60649 14.563 8.60649 13.901C8.60649 12.9645 9.36599 12.2055 10.303 12.2055C10.4825 12.2055 10.6555 12.2335 10.818 12.285V10.69C8.80599 10.7315 7.18799 12.3745 7.18799 14.3955C7.18799 15.4045 7.59099 16.319 8.24499 16.987C8.83499 17.383 9.54549 17.614 10.3095 17.614C12.3575 17.614 14.018 15.9545 14.018 13.9075L14.017 9.81499Z" fill="white"/>
<path fill-rule="evenodd" clip-rule="evenodd" d="M16.8131 9.13096V8.70396C16.2881 8.70496 15.7741 8.55796 15.3286 8.27996C15.7226 8.71146 16.2416 9.00896 16.8131 9.13096ZM14.0476 6.38596C14.0341 6.30946 14.0241 6.23296 14.0171 6.15546V5.89746H11.9991V13.907C11.9961 14.8405 11.2376 15.5965 10.3026 15.5965C10.0281 15.5965 9.7691 15.5315 9.5396 15.4155C9.8496 15.822 10.3391 16.0845 10.8901 16.0845C11.8251 16.0845 12.5831 15.3285 12.5866 14.395V6.38596H14.0476ZM10.8176 10.69V10.2355C10.6491 10.2125 10.4791 10.201 10.3086 10.201C8.2601 10.201 6.6001 11.8605 6.6001 13.9075C6.6001 15.191 7.2526 16.322 8.2441 16.987C7.5901 16.319 7.1871 15.4045 7.1871 14.3955C7.1871 12.3745 8.8056 10.7315 10.8176 10.69Z" fill="#81D4FA"/>
</svg>
